<svg xmlns="http://www.w3.org/2000/svg" width="16.371" height="14.734" viewBox="0 0 16.371 14.734">
  <path id="Path_125" data-name="Path 125" d="M10.186,6.274V4.637A1.642,1.642,0,0,0,8.548,3H3.637A1.642,1.642,0,0,0,2,4.637V16.1a1.642,1.642,0,0,0,1.637,1.637h13.1A1.642,1.642,0,0,0,18.371,16.1V7.911a1.642,1.642,0,0,0-1.637-1.637ZM5.274,16.1H3.637V14.46H5.274Zm0-3.274H3.637V11.186H5.274Zm0-3.274H3.637V7.911H5.274Zm0-3.274H3.637V4.637H5.274ZM8.548,16.1H6.911V14.46H8.548Zm0-3.274H6.911V11.186H8.548Zm0-3.274H6.911V7.911H8.548Zm0-3.274H6.911V4.637H8.548ZM15.915,16.1h-5.73V14.46h1.637V12.823H10.186V11.186h1.637V9.548H10.186V7.911h5.73a.821.821,0,0,1,.819.819v6.548A.821.821,0,0,1,15.915,16.1ZM15.1,9.548H13.46v1.637H15.1Zm0,3.274H13.46V14.46H15.1Z" transform="translate(-2 -3)" fill="#87a4c1"/>
</svg>
