<svg xmlns="http://www.w3.org/2000/svg" width="79" height="68.831" viewBox="0 0 79 68.831">
  <path id="Path_909" data-name="Path 909" d="M49,15.6C27.2,15.6,9.5,29.7,9.5,47.1,9.5,57.6,16,67,25.9,72.7a.962.962,0,0,1,.4,1.2L22,83.1c-.4.7.4,1.5,1.1,1.3L40.8,78a.3.3,0,0,1,.4,0,49.321,49.321,0,0,0,7.8.6c21.8,0,39.5-14.1,39.5-31.5S70.8,15.6,49,15.6ZM29.8,53.8A5.8,5.8,0,1,1,35.6,48,5.68,5.68,0,0,1,29.8,53.8Zm19.2,0A5.8,5.8,0,1,1,54.8,48,5.8,5.8,0,0,1,49,53.8Zm19.2,0A5.8,5.8,0,1,1,74,48,5.8,5.8,0,0,1,68.2,53.8Z" transform="translate(-9.5 -15.6)" fill="#fff"/>
</svg>
