<svg xmlns="http://www.w3.org/2000/svg" width="14.003" height="16.334" viewBox="0 0 14.003 16.334">
  <path id="Path_123" data-name="Path 123" d="M11.555,1H8.444a.778.778,0,1,0,0,1.556h3.111a.778.778,0,0,0,0-1.556ZM10,11.112a.78.78,0,0,0,.778-.778V7.223a.778.778,0,1,0-1.556,0v3.111A.78.78,0,0,0,10,11.112ZM15.468,5.97l.583-.583a.772.772,0,0,0,0-1.089l-.008-.008a.772.772,0,0,0-1.089,0l-.583.583A6.971,6.971,0,0,0,10,3.333a7.078,7.078,0,0,0-7,6.814A7,7,0,1,0,15.468,5.97ZM10,15.779a5.445,5.445,0,1,1,5.445-5.445A5.441,5.441,0,0,1,10,15.779Z" transform="translate(-2.997 -1)" fill="#87a4c1"/>
</svg>
