<svg xmlns="http://www.w3.org/2000/svg" width="22" height="18" viewBox="0 0 22 18">
  <path id="Path_18" data-name="Path 18" d="M10,3A3.008,3.008,0,0,0,7.188,5H2A1,1,0,1,0,2,7H7.188a2.978,2.978,0,0,0,5.625,0H22a1,1,0,1,0,0-2H12.813A3.008,3.008,0,0,0,10,3Zm0,2A1,1,0,1,1,9,6,.985.985,0,0,1,10,5Zm6,4a3.008,3.008,0,0,0-2.812,2H2a1,1,0,1,0,0,2H13.188a2.978,2.978,0,0,0,5.625,0H22a1,1,0,1,0,0-2H18.813A3.008,3.008,0,0,0,16,9Zm0,2a1,1,0,1,1-.988,1.057,1,1,0,0,0,0-.115A.978.978,0,0,1,16,11ZM8,15a3.01,3.01,0,0,0-2.818,2.014A1,1,0,0,0,5,17H2a1,1,0,1,0,0,2H5a1,1,0,0,0,.182-.016A2.978,2.978,0,0,0,10.813,19H22a1,1,0,1,0,0-2H10.813A3.008,3.008,0,0,0,8,15Zm0,2a1,1,0,1,1-1,1A.985.985,0,0,1,8,17Z" transform="translate(-1 -3)" fill="#0078d2"/>
</svg>
