<svg id="instagram-logo" xmlns="http://www.w3.org/2000/svg" width="54.383" height="54.383" viewBox="0 0 54.383 54.383">
  <path id="Path_127" data-name="Path 127" d="M39.375,0H15.007A15.025,15.025,0,0,0,0,15.008V39.375A15.024,15.024,0,0,0,15.007,54.383H39.375A15.025,15.025,0,0,0,54.383,39.375V15.008A15.025,15.025,0,0,0,39.375,0ZM49.558,39.375A10.194,10.194,0,0,1,39.375,49.557H15.007A10.194,10.194,0,0,1,4.825,39.375V15.008A10.194,10.194,0,0,1,15.007,4.825H39.375A10.194,10.194,0,0,1,49.557,15.008V39.375Z" fill="#fff"/>
  <path id="Path_128" data-name="Path 128" d="M54.981,40.97A14.013,14.013,0,1,0,68.994,54.983,14.029,14.029,0,0,0,54.981,40.97Zm0,23.2a9.188,9.188,0,1,1,9.188-9.187A9.2,9.2,0,0,1,54.981,64.17Z" transform="translate(-27.79 -27.791)" fill="#fff"/>
  <path id="Path_129" data-name="Path 129" d="M122.459,28.251a3.536,3.536,0,1,0,2.5,1.036A3.552,3.552,0,0,0,122.459,28.251Z" transform="translate(-80.667 -19.163)" fill="#fff"/>
</svg>
