<svg xmlns="http://www.w3.org/2000/svg" xmlns:xlink="http://www.w3.org/1999/xlink" width="251.622" height="251.666" viewBox="0 0 251.622 251.666">
  <defs>
    <clipPath id="clip-path">
      <circle id="Ellipse_118" data-name="Ellipse 118" cx="125.5" cy="125.5" r="125.5" transform="translate(132.383 352.576)" fill="none"/>
    </clipPath>
  </defs>
  <g id="Group_458" data-name="Group 458" transform="translate(1183.081 1110.111)">
    <circle id="Ellipse_117" data-name="Ellipse 117" cx="125.5" cy="125.5" r="125.5" transform="translate(-1183.081 -1110.111)" fill="#fff"/>
    <g id="Group_440" data-name="Group 440" transform="translate(-1314.842 -1462.021)" clip-path="url(#clip-path)">
      <path id="Path_847" data-name="Path 847" d="M256.883,472.862s52.469-1.226,77.527,29.3c0,0,7.794,23.289,12.13,68.186L318.1,615.922l-91.2.492,5.623-8.928V544Z" fill="#d3e4f4"/>
      <path id="Path_848" data-name="Path 848" d="M261.542,472.862s-47.172,0-78.779,18.3c0,0-15.387,3.742-21.625,78.184l34.933,46.578h41.745l11.9-4.469,6.514-72.914Z" fill="#d3e4f4"/>
    </g>
    <path id="Path_849" data-name="Path 849" d="M274.71,433.076l16.67,2.75,2.58,15.75-9.081,20.75-11.96,5.75s-5.459-27-5.459-27.75S274.71,433.076,274.71,433.076Z" transform="translate(-1314.842 -1462.021)" fill="#a8bcd0"/>
    <path id="Path_850" data-name="Path 850" d="M214.71,433.076l16.67,2.75,2.58,15.75-9.081,20.75-11.96,5.75s-5.459-27-5.459-27.75S214.71,433.076,214.71,433.076Z" transform="translate(-1314.842 -1462.021)" fill="#a8bcd0"/>
    <path id="Path_851" data-name="Path 851" d="M279.479,458.2v31.246s-.592,7.959-6.495,28.6l-11.857,10.274L249.72,531.6V495.734l-7.326-21.646,8.317-10.933,18.352-4.96Z" transform="translate(-1314.842 -1462.021)" fill="#e9f1f8"/>
    <path id="Path_852" data-name="Path 852" d="M226.9,463.155s.335,32.71,5.623,51.206,25.355,13.272,25.355,13.272-12.132-51.583-7.668-61.006Z" transform="translate(-1314.842 -1462.021)" fill="#e9f1f8"/>
    <path id="Path_853" data-name="Path 853" d="M232.528,514.361s17.98,16.756,40.456,3.68c0,0-10.993,40.455-15.1,46.586,0,0-4.923,11.033-5.128,15.938,0,0-.613-9.4-1.839-13.079C250.916,567.486,237.023,534.793,232.528,514.361Z" transform="translate(-1314.842 -1462.021)" fill="#c7d7e6"/>
    <path id="Path_854" data-name="Path 854" d="M226.9,439.816s-7.937,7.757-11.557-3.361,1.293-10.342,1.293-10.342l5.946-5.171,6.722,4.137Z" transform="translate(-1314.842 -1462.021)" fill="#f4f7fa"/>
    <path id="Path_855" data-name="Path 855" d="M252.755,478.076s-31.977,1.554-29.651-36.452l-2.844-26.112,1.81-16.546,9.049-14.479s5.947-3.877,7.239-4.653,12.151-2.068,12.151-2.068l6.752,9.049,3.675,23.268,1.466,31.541v20.167l-5.141,11.18Z" transform="translate(-1314.842 -1462.021)" fill="#f4f7fa"/>
    <path id="Path_856" data-name="Path 856" d="M252.755,478.076s30.331,1.037,30.073-36.451c0,0,9.048-.776,8.531-11.893s.021-20.424.021-20.424-2.09-11.634-2.09-12.41-9.811-12.927-9.811-12.927l-18.543-6.205-5.772,3.361,2.1,5.688a48.773,48.773,0,0,0-3.988,14.478Z" transform="translate(-1314.842 -1462.021)" fill="#f4f7fa"/>
    <path id="Path_857" data-name="Path 857" d="M279.479,380.093l1.578,10.953s5.39,3.784,4.1,23.95c0,0,2.586,5.946,2.586,9.048,0,0,1.439,8.784,2.141,12.924,0,0,.59,10.862,0,14.223,0,0-6.279,13.7-7.054,14.478s-9.566,24.045-6.2,33.1c0,0,12.834-7.319,17.275-15.036V391.986l-9.019-15.77Z" transform="translate(-1314.842 -1462.021)" fill="#c7d7e6"/>
    <path id="Path_858" data-name="Path 858" d="M277.381,365.463s14.37.77,19.408,30.51c0,0,4.049,15.081,2.64,39.465,0,0-.39,35.94.3,41.155l-4.462,5.553s-3.6-56.838-1.367-58.462c0,0-4.118-40.117-9.019-43.5s-6.668-11.839-6.668-11.839Z" transform="translate(-1314.842 -1462.021)" fill="#c7d7e6"/>
    <path id="Path_859" data-name="Path 859" d="M272.068,364.192s5.872,3.231,7.411,19.779c0,0,16.318,16.288,11.9,66.445,0,0-3.124,29.991-1.055,37.488,0,0,4.395-5.17,6.464-7.5,0,0-3.1-21.976-1.552-24.045,0,0,1.035-38.263,1.034-41.365C296.271,415,287.063,361.091,272.068,364.192Z" transform="translate(-1314.842 -1462.021)" fill="#c7d7e6"/>
    <path id="Path_860" data-name="Path 860" d="M262.4,360.576s-6.692-8.883-24.692-1.691a62.058,62.058,0,0,0-23.692,28.441s-4.058,18.75-9.058,32.5-5,18.5-7,24.75-4.16,18.018,0,28,13,18.813,31.75,28.031l-18-45.031,4.25-34.634,8.5-22.116,12.5-26.75,23.976-4.25Z" transform="translate(-1314.842 -1462.021)" fill="#c7d7e6"/>
    <path id="Path_861" data-name="Path 861" d="M270.486,388.487s-8.526,4.661-24.776,0-14.5,6.839-15,6.589-2.25,14.75-6.75,24-7.5,21.5-6.75,25.5,9.475,15.757,9.695,21a108.4,108.4,0,0,0,10.305,38.75s-6.729.75-20.115-15-12.135-26.75-12.385-27.75l-.25-1s-1.5-14.75,6-42.25,11.2-32,11.2-32,8.546-22.752,33.546-29.5c0,0,14.216-.5,16.858,11.751S270.486,388.487,270.486,388.487Z" transform="translate(-1314.842 -1462.021)" fill="#c7d7e6"/>
    <path id="Path_862" data-name="Path 862" d="M264.7,358.885s6.677,22.7,5.787,29.6c0,0,8.345-1.113,10.571,2.559C281.057,391.046,283.282,364.648,264.7,358.885Z" transform="translate(-1314.842 -1462.021)" fill="#c7d7e6"/>
    <path id="Path_863" data-name="Path 863" d="M289.3,441.724a2.787,2.787,0,1,1-2.751-3.235A3.022,3.022,0,0,1,289.3,441.724Z" transform="translate(-1314.842 -1462.021)" fill="#c7d7e6"/>
    <path id="Path_864" data-name="Path 864" d="M223.3,442.724a2.787,2.787,0,1,1-2.751-3.235A3.022,3.022,0,0,1,223.3,442.724Z" transform="translate(-1314.842 -1462.021)" fill="#c7d7e6"/>
    <rect id="Rectangle_206" data-name="Rectangle 206" width="6.5" height="9.75" transform="translate(-1015.631 -917.361)" fill="#c7d7e6"/>
    <rect id="Rectangle_207" data-name="Rectangle 207" width="36.25" height="22" transform="translate(-1030.131 -910.611)" fill="#fff" stroke="#c7d7e6" stroke-miterlimit="10" stroke-width="2"/>
  </g>
</svg>
