<svg xmlns="http://www.w3.org/2000/svg" xmlns:xlink="http://www.w3.org/1999/xlink" width="251" height="251" viewBox="0 0 251 251">
  <defs>
    <clipPath id="clip-path">
      <circle id="Ellipse_112" data-name="Ellipse 112" cx="125.5" cy="125.5" r="125.5" transform="translate(571.401 59.737)" fill="#dfe9f2"/>
    </clipPath>
  </defs>
  <g id="Group_459" data-name="Group 459" transform="translate(633.441 1117.284)">
    <circle id="Ellipse_111" data-name="Ellipse 111" cx="125.5" cy="125.5" r="125.5" transform="translate(-633.441 -1117.284)" fill="#fff"/>
    <g id="Group_428" data-name="Group 428" transform="translate(-1204.842 -1177.021)" clip-path="url(#clip-path)">
      <path id="Path_804" data-name="Path 804" d="M700.56,180.022s-47.173,0-78.779,18.3c0,0-15.387,3.742-21.625,78.183l34.932,46.578h67.135l10.4-9.981-2.078-61.549Z" fill="#d3e4f4"/>
      <path id="Path_805" data-name="Path 805" d="M695.9,180.022s42.919,0,74.527,18.3c0,0,15.386,3.742,21.625,78.183l-34.934,46.578H696.9V315.6l-1.746-60.3Z" fill="#d3e4f4"/>
    </g>
    <path id="Path_807" data-name="Path 807" d="M721.744,182.521v13.552l-5.361,7.109-3.644-8.33,4.439-9.615,2.578-3.074Z" transform="translate(-1204.842 -1177.021)" fill="#c7d7e6"/>
    <path id="Path_808" data-name="Path 808" d="M667.127,183.248s-.948,11.157,1.762,13.294,4.361,0,4.361,0l-.9-6.871-1.495-5.1v-1.931Z" transform="translate(-1204.842 -1177.021)" fill="#c7d7e6"/>
    <path id="Path_809" data-name="Path 809" d="M722.518,148.274s2.748,3.3,4.947,3.48c0,0,2.986-2.015,3.508-6.962,0,0,.339-7.877,1.437-11.724s0-13.557-7.144-12.091-5.68,9.71-5.68,9.71-1.281,11.782-1.281,12.3S722.518,148.274,722.518,148.274Z" transform="translate(-1204.842 -1167.021)" fill="#f4f7fa"/>
    <path id="Path_810" data-name="Path 810" d="M666.642,149.373s-2.564,3.665-4.946,3.481c0,0-3.049-1.1-3.357-6.778,0,0-.124-7.878-1.59-11.541,0,0-.955-14.407,7.034-12.059l7.072,15.064Z" transform="translate(-1204.842 -1167.021)" fill="#f4f7fa"/>
    <g id="Group_457" data-name="Group 457">
      <path id="Path_811" data-name="Path 811" d="M720.352,164.316v33.795s-15.428,38.735-20.281,44.759l-1.827,2.74L695.3,240.5,686,214.372l-1.534-12.6V190.076l5.37-18.085,19.365-1.645Z" transform="translate(-1204.842 -1177.021)" fill="#e9f1f8"/>
      <path id="Path_812" data-name="Path 812" d="M669.015,166.51l-.731,25.575s-.548,5.3,6.028,17.9,7.125,15.345,7.855,17.355,6.76,14.066,8.221,15.162,4.019,7.491,3.836,10.6c0,0,4.023-7.377,5.847-10.231,0,0-10.5-47.13-7.855-63.938Z" transform="translate(-1204.842 -1177.021)" fill="#e9f1f8"/>
    </g>
    <path id="Path_813" data-name="Path 813" d="M694.7,188.319s-14.12.983-23.957-18.692c0,0-7.33-23.415-7.33-33.646l3.346-27.546,6.3-10.821,12.593-3.542,6.887,3.542,8.46,8.46,4.525,24.4-5.9,40.73Z" transform="translate(-1204.842 -1167.021)" fill="#f4f7fa"/>
    <path id="Path_814" data-name="Path 814" d="M694.7,188.319s11.166,1.77,23.168-16.134c0,0,7.131-12,6.541-21.054l-1.574-48.008-15.151-5.509H692.538l-1.377,12.4,2.754,3.936S695.687,186.941,694.7,188.319Z" transform="translate(-1204.842 -1167.021)" fill="#f4f7fa"/>
    <path id="Path_815" data-name="Path 815" d="M721.525,137.237l3.875-2.75,1.25-12.125s5.375-5.625,3.875-16.75c0,0-2.5-18.875-11.25-21.125,0,0-6-11.875-18.25-11.125,0,0-9.624-1-13.749,3.25,0,0-19-1.625-27.875,23.125,0,0-3.419,11.265.324,19.964,0,0,2.176,3.411,2.3,5.661l1.39,10.619,3.11,2.256-.375-16.625s2.125-7.5,4.5-8.75c0,0,3.75-3,3.625-4.375,0,0,1.75-2,8,1.75,0,0,12.125,8.5,18.625,8.25,0,0,10.374.125,14.249-9.125,0,0,5.9,4.512,6.793,9.641.035.2.063.406.082.609C722.525,124.987,721.525,137.237,721.525,137.237Z" transform="translate(-1204.842 -1167.021)" fill="#c7d7e6"/>
    <rect id="Rectangle_200" data-name="Rectangle 200" width="6.5" height="9.75" transform="translate(-464.801 -925.534)" fill="#c7d7e6"/>
    <rect id="Rectangle_201" data-name="Rectangle 201" width="36.25" height="22" transform="translate(-479.301 -918.784)" fill="#fff" stroke="#c7d7e6" stroke-miterlimit="10" stroke-width="2"/>
  </g>
</svg>
